<svg width="34" height="35" fill="none" xmlns="http://www.w3.org/2000/svg"><path d="M28.7857 2.53149H5.21429c-.85249 0-1.67005.3357-2.27285.93325C2.33865 4.06228 2 4.87273 2 5.71778V29.0839c0 .8451.33865 1.6555.94144 2.2531.6028.5975 1.42036.9332 2.27285.9332h9.19081V22.1597h-4.2187v-4.7589h4.2187v-3.627c0-4.1256 2.4777-6.40446 6.2726-6.40446 1.8174 0 3.7178.32129 3.7178.32129v4.04927h-2.0939c-2.0632 0-2.7067 1.2692-2.7067 2.5709v3.09h4.6058l-.7366 4.7589h-3.8692v10.1105h9.1908c.8525 0 1.6701-.3357 2.2729-.9332.6028-.5976.9414-1.408.9414-2.2531V5.71778c0-.84505-.3386-1.6555-.9414-2.25304-.6028-.59755-1.4204-.93325-2.2729-.93325Z" fill="#436EAB"/></svg>